<?xml version="1.0" encoding="UTF-8" standalone="no"?>
<svg width="128px" height="125px" viewBox="0 0 128 125" version="1.1" xmlns="http://www.w3.org/2000/svg" xmlns:xlink="http://www.w3.org/1999/xlink" xmlns:sketch="http://www.bohemiancoding.com/sketch/ns">
    <!-- Generator: Sketch 3.4.2 (15855) - http://www.bohemiancoding.com/sketch -->
    <title>github</title>
    <desc>Created with Sketch.</desc>
    <defs></defs>
    <g id="Icons" stroke="none" stroke-width="1" fill="none" fill-rule="evenodd" sketch:type="MSPage">
        <g id="dukt-plugin-icons" sketch:type="MSArtboardGroup" transform="translate(-1856.000000, -66.000000)" fill="#FFFFFF">
            <path d="M1920.00084,66 C1884.65879,66 1856,94.652427 1856,129.999782 C1856,158.27703 1874.33819,182.267278 1899.76768,190.729998 C1902.96624,191.322441 1904.14053,189.341624 1904.14053,187.6512 C1904.14053,186.125049 1904.08118,181.083451 1904.05362,175.735563 C1886.24853,179.607112 1882.49144,168.184295 1882.49144,168.184295 C1879.58009,160.786701 1875.3853,158.819662 1875.3853,158.819662 C1869.57851,154.84743 1875.82301,154.929036 1875.82301,154.929036 C1882.2498,155.379463 1885.63383,161.524341 1885.63383,161.524341 C1891.34206,171.308665 1900.60601,168.479986 1904.25817,166.844673 C1904.8326,162.709228 1906.49123,159.883728 1908.32155,158.286569 C1894.10609,156.668213 1879.16252,151.180428 1879.16252,126.657087 C1879.16252,119.669647 1881.66265,113.960358 1885.75677,109.478349 C1885.09226,107.865292 1882.90159,101.356894 1886.37677,92.5412513 C1886.37677,92.5412513 1891.75115,90.8211519 1903.98155,99.1015814 C1909.08674,97.6835327 1914.56181,96.9723887 1920.00084,96.9480126 C1925.43987,96.9723887 1930.91918,97.6835327 1936.03391,99.1015814 C1948.24947,90.8211519 1953.61644,92.5412513 1953.61644,92.5412513 C1957.10009,101.356894 1954.90837,107.865292 1954.24386,109.478349 C1958.34751,113.960358 1960.83068,119.669647 1960.83068,126.657087 C1960.83068,151.238718 1945.8585,156.651256 1931.60701,158.235697 C1933.90259,160.221813 1935.94806,164.116678 1935.94806,170.087744 C1935.94806,178.650088 1935.87387,185.542144 1935.87387,187.6512 C1935.87387,189.354342 1937.02591,191.349996 1940.27004,190.721519 C1965.68575,182.249261 1984.00062,158.267492 1984.00062,129.999782 C1984.00062,94.652427 1955.34608,66 1920.00084,66 Z M1880.24037,157.890193 C1880.09941,158.209201 1879.59917,158.303526 1879.14345,158.085202 C1878.67924,157.876416 1878.41852,157.442946 1878.56902,157.123938 C1878.7068,156.796452 1879.20809,156.706367 1879.67124,156.923631 C1880.1365,157.133477 1880.40146,157.571186 1880.24037,157.890193 Z M1882.8327,160.781402 C1882.52747,161.064376 1881.93079,160.932957 1881.52594,160.48571 C1881.10731,160.039523 1881.02888,159.44284 1881.33835,159.155627 C1881.65312,158.872653 1882.23178,159.005132 1882.65147,159.451319 C1883.07011,159.902805 1883.15171,160.495249 1882.8327,160.781402 Z M1885.35615,164.467481 C1884.96402,164.739856 1884.32282,164.484438 1883.92645,163.915311 C1883.53431,163.346184 1883.53431,162.663655 1883.93492,162.39022 C1884.33236,162.116784 1884.96402,162.362664 1885.36569,162.927552 C1885.75677,163.505158 1885.75677,164.188746 1885.35615,164.467481 Z M1888.81331,168.0285 C1888.46251,168.415337 1887.71533,168.311474 1887.16846,167.78368 C1886.60887,167.267544 1886.45307,166.535204 1886.80494,166.148367 C1887.15998,165.76047 1887.9114,165.869632 1888.46251,166.393187 C1889.01786,166.908263 1889.18743,167.645902 1888.81331,168.0285 Z M1893.58253,170.096223 C1893.4278,170.597521 1892.70817,170.825384 1891.98325,170.612359 C1891.25939,170.392974 1890.78565,169.80583 1890.9319,169.299233 C1891.0824,168.794755 1891.8052,168.557354 1892.53542,168.785217 C1893.25822,169.003541 1893.73303,169.586446 1893.58253,170.096223 Z M1898.8202,170.47988 C1898.83821,171.007674 1898.22351,171.445383 1897.46256,171.453861 C1896.69736,171.471878 1896.07842,171.044768 1896.06994,170.525453 C1896.06994,169.99236 1896.67087,169.55889 1897.43606,169.546172 C1898.19702,169.531335 1898.8202,169.955266 1898.8202,170.47988 Z M1903.69434,169.650036 C1903.78549,170.165112 1903.25663,170.693965 1902.50098,170.833862 C1901.75804,170.97058 1901.07021,170.652632 1900.97588,170.141795 C1900.88368,169.614001 1901.42207,169.085148 1902.16395,168.94843 C1902.92067,168.817011 1903.5979,169.126481 1903.69434,169.650036 Z" id="github" sketch:type="MSShapeGroup"></path>
        </g>
    </g>
</svg>