<?xml version="1.0" encoding="UTF-8" standalone="no"?>
<svg width="512px" height="512px" viewBox="0 0 512 512" version="1.1" xmlns="http://www.w3.org/2000/svg" xmlns:xlink="http://www.w3.org/1999/xlink" xmlns:sketch="http://www.bohemiancoding.com/sketch/ns">
    <!-- Generator: Sketch 3.3.3 (12072) - http://www.bohemiancoding.com/sketch -->
    <title>github</title>
    <desc>Created with Sketch.</desc>
    <defs></defs>
    <g id="Icons" stroke="none" stroke-width="1" fill="none" fill-rule="evenodd" sketch:type="MSPage">
        <g id="github" sketch:type="MSArtboardGroup" fill="#464E4F">
            <path d="M256.003368,6 C114.635144,6 0,120.609708 0,261.999129 C0,375.108122 73.3527568,471.069111 175.070727,504.91999 C187.864961,507.289764 192.562115,499.366496 192.562115,492.604799 C192.562115,486.500194 192.324713,466.333803 192.214491,444.942252 C120.994107,460.428447 105.965758,414.737178 105.965758,414.737178 C94.3203771,385.146804 77.5411937,377.278648 77.5411937,377.278648 C54.3140218,361.389719 79.2920281,361.716146 79.2920281,361.716146 C104.999196,363.517852 118.535308,388.097363 118.535308,388.097363 C141.368224,427.23466 178.424021,415.919945 193.032678,409.378692 C195.330383,392.83691 201.964901,381.534913 209.286187,375.146275 C152.424341,368.672851 92.6500895,346.721711 92.6500895,248.628349 C92.6500895,220.678588 102.650619,197.841432 119.027068,179.913396 C116.369021,173.461168 107.60637,147.427574 121.507063,112.165005 C121.507063,112.165005 143.004597,105.284608 191.926218,138.406326 C212.346968,132.734131 234.247236,129.889555 256.003368,129.792051 C277.7595,129.889555 299.676725,132.734131 320.135629,138.406326 C368.9979,105.284608 390.465758,112.165005 390.465758,112.165005 C404.400366,147.427574 395.633475,173.461168 392.975429,179.913396 C409.390032,197.841432 419.322732,220.678588 419.322732,248.628349 C419.322732,346.954873 359.434019,368.605022 302.428037,374.942789 C311.610379,382.887253 319.792245,398.466712 319.792245,422.350977 C319.792245,456.600351 319.495493,484.168575 319.495493,492.604799 C319.495493,499.417368 324.103621,507.399986 337.080145,504.886076 C438.743005,470.997043 512.002497,375.069968 512.002497,261.999129 C512.002497,120.609708 397.38431,6 256.003368,6 Z M96.9614664,373.560774 C96.3976383,374.836806 94.3966847,375.214104 92.573782,374.340807 C90.7169648,373.505663 89.6740949,371.771786 90.2760767,370.495754 C90.8271868,369.185807 92.8323798,368.825466 94.6849577,369.694524 C96.5460141,370.533908 97.6058413,372.284742 96.9614664,373.560774 Z M107.330815,385.125608 C106.109894,386.257503 103.723164,385.731829 102.103748,383.942841 C100.429221,382.158092 100.115512,379.771361 101.35339,378.622508 C102.612465,377.490613 104.927127,378.020527 106.605893,379.805275 C108.28042,381.611221 108.606847,383.980994 107.330815,385.125608 Z M117.424609,399.869923 C115.856065,400.959425 113.291283,399.937752 111.705782,397.661243 C110.137238,395.384735 110.137238,392.65462 111.739696,391.560878 C113.329437,390.467137 115.856065,391.450656 117.462763,393.710208 C119.027068,396.020631 119.027068,398.754985 117.424609,399.869923 Z M131.253234,414.114 C129.850023,415.661348 126.86131,415.245895 124.673827,413.13472 C122.435472,411.070176 121.812293,408.140814 123.219744,406.593467 C124.639912,405.04188 127.645582,405.478528 129.850023,407.572747 C132.07142,409.633051 132.74971,412.58361 131.253234,414.114 Z M150.330122,422.384891 C149.711183,424.390084 146.832693,425.301535 143.933006,424.449434 C141.037558,423.571898 139.142587,421.223321 139.727612,419.196931 C140.329593,417.17902 143.220802,416.229415 146.141686,417.140866 C149.032894,418.014164 150.932104,420.345784 150.330122,422.384891 Z M171.280786,423.919521 C171.352854,426.030696 168.894055,427.781531 165.850231,427.815445 C162.78945,427.887514 160.313694,426.179072 160.27978,424.101811 C160.27978,421.969439 162.683468,420.235562 165.744248,420.18469 C168.788072,420.12534 171.280786,421.821063 171.280786,423.919521 Z M190.777366,420.600142 C191.141946,422.660446 189.026531,424.775861 186.003904,425.33545 C183.032149,425.882321 180.280838,424.610528 179.903539,422.567181 C179.534719,420.456006 181.688288,418.340591 184.655804,417.79372 C187.682671,417.268046 190.391589,418.505924 190.777366,420.600142 Z" id="Fill-51" sketch:type="MSShapeGroup"></path>
        </g>
    </g>
</svg>