<?xml version="1.0" encoding="UTF-8" standalone="no"?>
<svg width="512px" height="512px" viewBox="0 0 512 512" version="1.1" xmlns="http://www.w3.org/2000/svg" xmlns:xlink="http://www.w3.org/1999/xlink" xmlns:sketch="http://www.bohemiancoding.com/sketch/ns">
    <!-- Generator: Sketch 3.3.3 (12072) - http://www.bohemiancoding.com/sketch -->
    <title>github-icon</title>
    <desc>Created with Sketch.</desc>
    <defs></defs>
    <g id="Icons" stroke="none" stroke-width="1" fill="none" fill-rule="evenodd" sketch:type="MSPage">
        <g id="github-icon" sketch:type="MSArtboardGroup">
            <rect id="Rectangle-17" stroke="#979797" fill="#7F8C8D" sketch:type="MSShapeGroup" x="0" y="0" width="512" height="512"></rect>
            <path d="M255.798888,106 C170.869241,106 102,174.85396 102,259.796341 C102,327.748718 146.068062,385.399106 207.177066,405.735665 C214.863445,407.159351 217.685349,402.399297 217.685349,398.337079 C217.685349,394.669622 217.542726,382.55428 217.476508,369.702899 C174.689509,379.006524 165.660943,351.556627 165.660943,351.556627 C158.664759,333.779647 148.584346,329.052703 148.584346,329.052703 C134.630181,319.507127 149.636193,319.703234 149.636193,319.703234 C165.080262,320.785643 173.212339,335.552251 173.212339,335.552251 C186.929647,359.064726 209.191621,352.267197 217.968049,348.337414 C219.348439,338.399624 223.334252,331.609735 227.732654,327.771639 C193.571819,323.882607 157.661302,310.695042 157.661302,251.763591 C157.661302,234.972241 163.66931,221.252386 173.507773,210.481777 C171.910901,206.605479 166.646572,190.965303 174.997677,169.780644 C174.997677,169.780644 187.912729,165.647115 217.303323,185.545616 C229.571476,182.137937 242.728478,180.429004 255.798888,180.370427 C268.869297,180.429004 282.036487,182.137937 294.327562,185.545616 C323.6825,165.647115 336.579724,169.780644 336.579724,169.780644 C344.951204,190.965303 339.684328,206.605479 338.087456,210.481777 C347.948841,221.252386 353.916099,234.972241 353.916099,251.763591 C353.916099,310.835119 317.936817,323.841857 283.68939,327.649391 C289.205856,332.422179 294.121268,341.781835 294.121268,356.130761 C294.121268,376.706723 293.942988,393.268857 293.942988,398.337079 C293.942988,402.42986 296.711409,407.225569 304.507302,405.71529 C365.583197,385.355809 409.595229,327.725796 409.595229,259.796341 C409.595229,174.85396 340.736175,106 255.798888,106 Z M160.251443,326.819119 C159.912713,327.58572 158.710602,327.812389 157.615459,327.287739 C156.49994,326.78601 155.873416,325.744351 156.235069,324.97775 C156.566158,324.190775 157.770816,323.974293 158.883788,324.496396 C160.001853,325.000672 160.638564,326.052519 160.251443,326.819119 Z M166.481027,333.766913 C165.747535,334.446921 164.313661,334.131112 163.340767,333.056343 C162.334763,331.984121 162.146296,330.550247 162.889975,329.860052 C163.646388,329.180045 165.036966,329.4984 166.045516,330.570622 C167.05152,331.655578 167.247627,333.079265 166.481027,333.766913 Z M172.545065,342.624841 C171.602732,343.27938 170.061891,342.66559 169.109371,341.297934 C168.167038,339.930278 168.167038,338.29011 169.129746,337.633024 C170.084813,336.975938 171.602732,337.566806 172.567987,338.924275 C173.507773,340.312305 173.507773,341.95502 172.545065,342.624841 Z M180.852874,351.18224 C180.009868,352.111839 178.214343,351.862248 176.90017,350.593919 C175.555436,349.353606 175.18105,347.593736 176.026603,346.664137 C176.879796,345.731992 178.685509,345.994317 180.009868,347.252458 C181.344415,348.490225 181.751911,350.262829 180.852874,351.18224 Z M192.313678,356.151135 C191.941838,357.355793 190.21253,357.903365 188.470488,357.391449 C186.730993,356.864252 185.592553,355.4533 185.944018,354.235908 C186.30567,353.02361 188.042618,352.453116 189.797395,353.000688 C191.534343,353.525338 192.67533,354.926103 192.313678,356.151135 Z M204.900187,357.073093 C204.943483,358.341422 203.466313,359.393269 201.637678,359.413644 C199.798856,359.456941 198.311498,358.430562 198.291123,357.182608 C198.291123,355.901545 199.735185,354.859885 201.574007,354.829323 C203.402642,354.793667 204.900187,355.812405 204.900187,357.073093 Z M216.613128,355.078914 C216.832156,356.31668 215.561281,357.587556 213.74538,357.92374 C211.960041,358.252283 210.307139,357.488229 210.08047,356.26065 C209.858894,354.992321 211.152692,353.721445 212.935483,353.392902 C214.753931,353.077093 216.381365,353.820772 216.613128,355.078914 Z" id="Fill-51" fill="#FFFFFF" sketch:type="MSShapeGroup"></path>
        </g>
    </g>
</svg>